<?xml version="1.0" encoding="UTF-8" standalone="no"?>
<!-- Creator: CorelDRAW 2019 (64-Bit) -->

<svg
   xml:space="preserve"
   width="237mm"
   height="63mm"
   version="1.1"
   shape-rendering="geometricPrecision"
   text-rendering="geometricPrecision"
   image-rendering="optimizeQuality"
   fill-rule="evenodd"
   clip-rule="evenodd"
   viewBox="0 0 23700 6300"
   id="svg2"
   sodipodi:docname="gobo_ws_logotype2 (3).svg"
   inkscape:version="1.4 (86a8ad7, 2024-10-11)"
   xmlns:inkscape="http://www.inkscape.org/namespaces/inkscape"
   xmlns:sodipodi="http://sodipodi.sourceforge.net/DTD/sodipodi-0.dtd"
   xmlns="http://www.w3.org/2000/svg"
   xmlns:svg="http://www.w3.org/2000/svg"><defs
   id="defs2" /><sodipodi:namedview
   id="namedview2"
   pagecolor="#ffffff"
   bordercolor="#000000"
   borderopacity="0.25"
   inkscape:showpageshadow="2"
   inkscape:pageopacity="0.0"
   inkscape:pagecheckerboard="0"
   inkscape:deskcolor="#d1d1d1"
   inkscape:document-units="mm"
   showgrid="false"
   inkscape:zoom="2.1512746"
   inkscape:cx="62.521074"
   inkscape:cy="193.14131"
   inkscape:window-width="2560"
   inkscape:window-height="1377"
   inkscape:window-x="1912"
   inkscape:window-y="-8"
   inkscape:window-maximized="1"
   inkscape:current-layer="Layer_x0020_1" />
 <g
   id="Layer_x0020_1"
   inkscape:label="Layer 1">
  <metadata
   id="CorelCorpID_0Corel-Layer" />
  <g
   id="_1821722314992"
   style="fill:#a9a9a9;fill-opacity:1">
   <path
   fill="black"
   fill-rule="nonzero"
   d="M1660.44 6228.04c-169.18,0 -341.63,-6.5 -517.32,-19.51 -175.69,-13.01 -339.45,-30.35 -491.28,-52.04l0 -754.48c156.16,17.34 323.18,33.6 501.05,48.78 177.85,15.17 344.87,22.76 501.04,22.76 290.65,0 525.99,-34.68 706.02,-104.07 180.03,-69.37 312.34,-178.86 396.93,-328.45 84.59,-149.6 126.89,-339.3 126.89,-569.12l0 -695.94 195.22 -442.29c-13.02,325.21 -80.26,601.64 -201.72,829.28 -121.48,227.65 -286.31,401.1 -494.54,520.34 -208.24,119.24 -449,178.86 -722.29,178.86 -242.94,0 -463.09,-45.52 -660.48,-136.58 -197.38,-91.06 -366.56,-216.81 -507.56,-377.25 -140.97,-160.43 -250.51,-349.05 -328.6,-565.86 -78.09,-216.8 -117.13,-448.79 -117.13,-695.95l0 -136.59c0,-247.16 40.13,-478.06 120.39,-692.69 80.25,-214.64 194.12,-402.18 341.62,-562.61 147.49,-160.44 323.18,-284.02 527.07,-370.74 203.9,-86.72 429.47,-130.08 676.74,-130.08 290.65,0 543.35,62.87 758.08,188.62 214.74,125.75 382.84,307.87 504.3,546.35 121.46,238.49 188.71,531.17 201.72,878.06l-156.17 26.02 0 -1528.49 715.79 0 0 3115.5c0,429.28 -73.76,776.17 -221.25,1040.67 -147.49,264.51 -374.16,458.56 -679.99,582.13 -305.83,123.58 -697.34,185.37 -1174.53,185.37zm260.28 -2139.88c173.52,0 331.86,-39.02 475.01,-117.07 143.16,-78.05 258.12,-190.79 344.89,-338.22 86.76,-147.42 130.14,-325.21 130.14,-533.34l0 -227.65c0,-199.46 -44.47,-368.57 -133.4,-507.32 -88.93,-138.76 -204.97,-243.91 -348.13,-315.46 -143.16,-71.54 -299.32,-107.31 -468.51,-107.31 -190.87,0 -358.98,44.44 -504.31,133.33 -145.32,88.89 -259.19,213.56 -341.61,373.99 -82.43,160.44 -123.64,351.23 -123.64,572.37 0,216.81 41.21,405.43 123.64,565.86 82.42,160.44 196.29,284.02 341.61,370.74 145.33,86.72 313.44,130.08 504.31,130.08zm3659.61 871.56c-312.35,0 -587.82,-49.86 -826.41,-149.59 -238.6,-99.74 -440.31,-235.23 -605.16,-406.51 -164.85,-171.28 -289.57,-365.32 -374.17,-582.13 -84.58,-216.8 -126.88,-442.28 -126.88,-676.43l0 -136.59c0,-242.82 44.47,-473.72 133.4,-692.7 88.93,-218.97 216.9,-414.09 383.92,-585.37 167.02,-171.28 369.81,-305.69 608.41,-403.25 238.6,-97.57 507.56,-146.35 806.89,-146.35 299.32,0 568.29,48.78 806.88,146.35 238.59,97.56 441.4,231.97 608.41,403.25 167.01,171.28 293.9,366.4 380.67,585.37 86.75,218.98 130.14,449.88 130.14,692.7l0 136.59c0,234.15 -42.3,459.63 -126.9,676.43 -84.58,216.81 -209.31,410.85 -374.15,582.13 -164.85,171.28 -366.57,306.77 -605.17,406.51 -238.59,99.73 -511.89,149.59 -819.88,149.59zm0 -773.99c221.23,0 407.77,-48.78 559.6,-146.35 151.84,-97.56 266.79,-229.81 344.87,-396.75 78.09,-166.95 117.14,-356.64 117.14,-569.12 0,-216.8 -40.14,-408.67 -120.39,-575.62 -80.26,-166.93 -197.38,-299.18 -351.37,-396.75 -154.01,-97.56 -337.29,-146.34 -549.85,-146.34 -212.57,0 -395.86,48.78 -549.86,146.34 -154,97.57 -272.21,229.82 -354.64,396.75 -82.42,166.95 -123.63,358.82 -123.63,575.62 0,212.48 40.12,402.17 120.38,569.12 80.25,166.94 196.3,299.19 348.13,396.75 151.83,97.57 338.37,146.35 559.62,146.35zm3952.41 767.49c-290.65,0 -546.59,-61.79 -767.84,-185.37 -221.24,-123.58 -394.77,-304.61 -520.56,-543.09 -125.8,-238.49 -195.22,-526.84 -208.23,-865.06l136.65 0 0 1476.45 -715.79 0 0 -4748.06 904.49 0 0 2374.03 -240.76 370.74c17.35,-364.23 90.02,-667.76 217.99,-910.59 127.97,-242.82 300.41,-424.93 517.31,-546.34 216.91,-121.41 462.01,-182.12 735.31,-182.12 242.93,0 464.17,45.52 663.72,136.58 199.55,91.06 370.91,217.89 514.07,380.5 143.15,162.6 252.69,352.31 328.6,569.11 75.92,216.81 113.87,453.13 113.87,708.96l0 136.58c0,255.84 -39.04,494.33 -117.12,715.47 -78.09,221.14 -190.88,415.18 -338.37,582.12 -147.5,166.94 -324.27,297.03 -530.33,390.25 -206.06,93.23 -437.06,139.84 -693.01,139.84zm-201.72 -760.99c195.22,0 365.48,-48.78 510.81,-146.34 145.33,-97.57 259.19,-230.9 341.63,-400.01 82.42,-169.11 123.63,-364.23 123.63,-585.38 0,-225.48 -41.21,-420.59 -123.63,-585.37 -82.44,-164.77 -196.3,-292.69 -341.63,-383.75 -145.33,-91.06 -315.59,-136.58 -510.81,-136.58 -177.87,0 -341.61,39.02 -491.28,117.07 -149.66,78.05 -271.13,192.96 -364.4,344.73 -93.27,151.75 -139.91,333.87 -139.91,546.34l0 260.17c0,203.8 47.72,377.24 143.16,520.33 95.44,143.1 219.08,253.66 370.9,331.71 151.84,78.05 312.35,117.08 481.53,117.08zm3529.47 767.49c-312.35,0 -587.81,-49.86 -826.41,-149.59 -238.59,-99.74 -440.31,-235.23 -605.16,-406.51 -164.84,-171.28 -289.57,-365.32 -374.16,-582.13 -84.59,-216.8 -126.89,-442.28 -126.89,-676.43l0 -136.59c0,-242.82 44.46,-473.72 133.41,-692.7 88.93,-218.97 216.89,-414.09 383.91,-585.37 167.02,-171.28 369.81,-305.69 608.4,-403.25 238.61,-97.57 507.56,-146.35 806.9,-146.35 299.32,0 568.28,48.78 806.88,146.35 238.59,97.56 441.39,231.97 608.4,403.25 167.02,171.28 293.91,366.4 380.67,585.37 86.76,218.98 130.14,449.88 130.14,692.7l0 136.59c0,234.15 -42.29,459.63 -126.89,676.43 -84.59,216.81 -209.3,410.85 -374.15,582.13 -164.85,171.28 -366.57,306.77 -605.16,406.51 -238.59,99.73 -511.89,149.59 -819.89,149.59zm0 -773.99c221.23,0 407.78,-48.78 559.6,-146.35 151.84,-97.56 266.8,-229.81 344.88,-396.75 78.09,-166.95 117.13,-356.64 117.13,-569.12 0,-216.8 -40.13,-408.67 -120.39,-575.62 -80.25,-166.93 -197.38,-299.18 -351.38,-396.75 -154,-97.56 -337.28,-146.34 -549.84,-146.34 -212.57,0 -395.86,48.78 -549.86,146.34 -154,97.57 -272.21,229.82 -354.63,396.75 -82.43,166.95 -123.64,358.82 -123.64,575.62 0,212.48 40.13,402.17 120.38,569.12 80.25,166.94 196.3,299.19 348.13,396.75 151.83,97.57 338.37,146.35 559.62,146.35zm4211.4 650.42l670.22 -3414.7 1041.14 0 774.35 3414.7 -715.78 0 -787.36 -3395.18 377.42 0 -696.27 3395.18 -663.72 0zm-266.8 0l-6.51 -741.48 722.3 0 0 741.48 -715.79 0zm-364.39 0l-963.05 -3531.78 878.45 0 917.51 3531.78 -832.91 0zm2628.87 0l0 -741.48 722.29 0 -6.51 741.48 -715.78 0zm286.31 0l813.39 -3531.78 819.88 0 -852.42 3531.78 -780.85 0zm2748.6 110.56c-485.86,0 -866.52,-102.98 -1141.99,-308.95 -275.47,-205.96 -419.71,-491.05 -432.72,-855.29l813.38 0c13.02,121.41 80.26,231.98 201.73,331.71 121.46,99.73 312.33,149.6 572.62,149.6 216.9,0 389.34,-39.02 517.32,-117.07 127.96,-78.06 191.95,-184.29 191.95,-318.71 0,-117.07 -48.79,-210.3 -146.41,-279.69 -97.6,-69.37 -263.53,-114.9 -497.79,-136.58l-312.34 -32.52c-394.77,-43.36 -698.43,-156.1 -911,-338.22 -212.56,-182.12 -318.84,-424.93 -318.84,-728.46 0,-242.83 60.74,-446.62 182.2,-611.4 121.46,-164.77 289.56,-289.43 504.3,-373.98 214.73,-84.56 460.91,-126.84 738.55,-126.84 433.81,0 785.19,95.4 1054.15,286.18 268.96,190.8 409.95,470.48 422.97,839.05l-813.39 0c-8.68,-121.41 -69.42,-225.48 -182.2,-312.21 -112.79,-86.72 -275.47,-130.08 -488.03,-130.08 -190.88,0 -338.37,36.86 -442.49,110.57 -104.11,73.71 -156.17,169.1 -156.17,286.18 0,112.74 42.3,199.46 126.89,260.17 84.6,60.71 222.33,101.9 413.2,123.58l312.35 32.52c416.45,43.36 742.89,158.27 979.31,344.72 236.42,186.46 354.64,437.95 354.64,754.49 0,234.15 -63.98,436.86 -191.96,608.14 -127.97,171.28 -306.92,304.61 -536.84,400.01 -229.91,95.39 -501.04,143.08 -813.39,143.08z"
   id="path1"
   style="fill:#a9a9a9;fill-opacity:1" />
   <path
   fill="black"
   d="M15406.57 3801.55c285.8,0 517.47,231.67 517.47,517.45 0,285.8 -231.67,517.47 -517.47,517.47 -285.78,0 -517.46,-231.67 -517.46,-517.47 0,-285.78 231.68,-517.45 517.46,-517.45z"
   id="path2"
   style="fill:#a9a9a9;fill-opacity:1" />
  </g>
 </g>
</svg>
